<svg width="32" height="33" viewBox="0 0 32 33" fill="none" xmlns="http://www.w3.org/2000/svg">
<path d="M21.8997 6.64012L23.2197 5.32013C24.3133 4.22663 26.0862 4.22663 27.1797 5.32013C28.2732 6.41365 28.2732 8.18657 27.1797 9.28009L25.8597 10.6001M21.8997 6.64012L13.0206 15.5192C12.3439 16.196 11.8639 17.0437 11.6318 17.9721L10.6665 21.8333L14.5277 20.868C15.4561 20.636 16.3038 20.1559 16.9806 19.4792L25.8597 10.6001M21.8997 6.64012L25.8597 10.6001" stroke="#141B34" stroke-width="1.5" stroke-linejoin="round"/>
<path d="M25.3332 18.5C25.3332 22.8833 25.3332 25.0749 24.1227 26.5501C23.9011 26.8201 23.6535 27.0677 23.3833 27.2893C21.9083 28.5 19.7165 28.5 15.3332 28.5H14.6667C9.63835 28.5 7.12421 28.5 5.56212 26.9379C4.00004 25.3759 4 22.8616 4 17.8333V17.1667C4 12.7834 4 10.5917 5.21059 9.11659C5.43223 8.84653 5.67987 8.59889 5.94992 8.37725C7.42505 7.16667 9.61669 7.16667 14 7.16667" stroke="#141B34" stroke-width="1.5" stroke-linecap="round" stroke-linejoin="round"/>
</svg>
